PathFileType	4	(X/Y/Z)	C:\Users\WrightLab\Desktop\Jo\P3_24.trc
DataRate	CameraRate	NumFrames	NumMarkers	Units	OrigDataRate	OrigDataStartFrame	OrigNumFrames
100.00	100.00	       16	19	mm	100.00	305	       609
Frame#	Time	Headset_Front			Headset_Back			Headset_Left			Headset_Right			Left_Shoulder			Right_Shoulder			Sternum			C7			Left Elbow			Right Elbow			Left Wrist			Right Wrist			Left ASIS			Right ASIS			S2			Left Knee			Right Knee			Left Ankle			Right Ankle			
		X1	Y1	Z1	X2	Y2	Z2	X3	Y3	Z3	X4	Y4	Z4	X5	Y5	Z5	X6	Y6	Z6	X7	Y7	Z7	X8	Y8	Z8	X9	Y9	Z9	X10	Y10	Z10	X11	Y11	Z11	X12	Y12	Z12	X13	Y13	Z13	X14	Y14	Z14	X15	Y15	Z15	X16	Y16	Z16	X17	Y17	Z17	X18	Y18	Z18	X19	Y19	Z19	

305	3.040	-580.48737	1429.12537	-145.23804	-626.91663	1626.59644	78.84475	-714.21039	1547.59839	-34.59844	-493.69293	1491.55786	-37.03609	-800.46741	1342.16675	151.33876	-455.06497	1343.42676	72.16072	-662.21179	1218.89478	-8.58386	-613.24872	1395.96167	153.88130	-888.96167	1015.36517	183.17155	-302.25964	1036.89734	-0.16978	-915.08984	834.72101	82.83581	-255.03296	931.12189	-196.34492	-743.79559	860.62695	66.66128	-505.74051	864.99396	-17.23679	-558.41980	943.81128	222.98988	-728.93506	446.44122	164.95248	-567.74231	458.32883	-107.04781	-699.92371	118.46952	211.97263	-522.30463	182.35533	88.97197	
306	3.050	-582.26288	1428.00342	-152.25600	-630.13300	1625.57751	70.43867	-716.44659	1546.91870	-42.65895	-496.75131	1490.07410	-44.99557	-804.43262	1341.59314	142.51219	-458.79883	1342.27722	65.69543	-664.58301	1218.35400	-16.39697	-617.19812	1395.94617	146.41180	-895.23157	1015.57568	171.55951	-304.49573	1035.92432	-4.09889	-920.97827	833.81354	72.16210	-256.11807	929.40283	-199.67403	-747.37091	859.65778	58.33952	-507.97748	864.40106	-21.50650	-562.19818	943.39160	217.89659	-730.48584	445.47867	161.37845	-570.73926	460.13190	-117.26864	-699.87732	118.48166	210.84781	-533.42310	173.96870	67.94261	
307	3.060	-584.06104	1427.37964	-160.17680	-632.56714	1624.90381	63.45450	-718.74854	1545.86755	-50.69389	-498.25577	1490.15247	-51.83940	-808.45984	1341.49207	133.05185	-461.23932	1341.71301	60.34177	-667.30396	1218.28186	-24.25830	-621.15460	1395.52136	138.07278	-901.28198	1015.78125	159.97046	-307.80811	1034.48901	-8.32128	-926.51593	833.89014	60.92266	-258.08289	928.13501	-204.11305	-750.41431	858.09631	50.98752	-510.55878	864.26855	-26.23671	-566.62823	942.65540	210.70889	-731.59601	444.90430	157.90916	-573.20032	461.59253	-126.97984	-699.64728	118.33743	209.13463	-543.41107	165.95644	44.17582	
308	3.070	-585.60638	1426.32336	-167.68674	-635.21545	1624.61462	55.05485	-721.19635	1545.44604	-59.02420	-500.64520	1489.23389	-57.35630	-811.90039	1340.75110	123.50014	-464.41226	1341.29163	53.94789	-669.55945	1216.99255	-32.16405	-624.38806	1394.57324	131.28889	-907.16290	1016.26367	148.64349	-310.99872	1033.92822	-12.59816	-933.06409	835.38031	47.99222	-260.51913	926.85675	-207.62767	-753.59668	856.41364	43.67630	-513.47510	865.00555	-34.65303	-571.44098	942.14447	203.36620	-732.28271	444.48941	153.51399	-575.91095	461.96591	-135.19000	-699.56311	118.54697	208.17773	-553.68170	158.27104	20.91871	
309	3.080	-587.31519	1424.81104	-175.12056	-638.25073	1623.76526	46.68339	-723.60974	1544.38940	-68.00725	-503.35199	1488.50256	-65.27859	-815.19867	1340.19727	114.07620	-467.24533	1340.13843	46.78704	-672.01294	1216.28772	-39.80098	-628.19330	1393.71313	123.45650	-912.61243	1016.49347	137.12265	-313.19446	1032.05042	-16.19924	-938.92529	835.48169	36.57016	-262.46149	924.43646	-210.77795	-756.73431	855.17188	34.93428	-516.74298	863.83881	-41.16059	-575.94049	941.88861	196.13158	-732.96759	443.91855	149.50856	-578.57086	462.42172	-142.63744	-699.65662	118.72418	206.88628	-561.74200	150.94490	-1.41784	
310	3.090	-588.64313	1423.71082	-182.33417	-640.22559	1622.89685	39.51755	-725.84094	1543.11938	-76.22770	-505.27805	1486.98035	-71.98474	-818.65607	1339.39551	104.72426	-469.87888	1339.62036	40.40037	-673.66431	1214.73572	-47.90569	-631.28107	1393.16455	115.32507	-917.75604	1015.65625	126.73528	-316.81567	1030.39722	-20.12616	-945.63751	836.71124	23.41079	-264.39194	922.47363	-214.57585	-759.80359	853.46387	26.93299	-517.52515	862.40442	-47.02107	-578.50067	941.62909	190.25317	-733.68304	443.07623	145.77563	-579.58673	462.78998	-150.41997	-699.73688	119.00616	206.23032	-570.92090	144.11957	-26.40845	
311	3.100	-590.24243	1422.83289	-190.31844	-644.06641	1621.92163	30.97790	-727.88062	1541.83142	-84.32652	-509.41968	1485.84436	-78.19424	-822.20764	1338.75183	94.85067	-472.24640	1337.94299	34.85068	-675.98639	1213.90991	-55.75574	-634.49329	1392.00439	107.51055	-922.17590	1015.13477	115.05886	-318.94974	1028.78748	-24.22906	-950.96478	837.60181	10.84509	-266.35373	919.89484	-217.78940	-762.30920	852.16547	19.00782	-520.37506	862.53369	-53.64820	-583.42633	940.26459	182.38446	-734.61163	442.95444	141.54845	-581.16376	462.36172	-156.66376	-699.71008	119.16509	205.17125	-578.51489	136.97018	-50.77324	
312	3.110	-591.47064	1421.86719	-197.76497	-646.60693	1621.19897	22.82043	-729.84698	1540.69263	-93.41449	-511.15607	1484.81604	-86.24101	-825.39172	1337.36829	84.95731	-475.45044	1336.73657	28.65794	-677.76520	1212.62390	-63.72313	-638.33905	1391.53735	99.94672	-928.27002	1015.34705	103.68124	-322.07529	1026.59619	-28.25286	-955.60571	836.70795	0.06800	-268.55344	917.81573	-221.58087	-764.64319	850.51080	10.10874	-522.32446	861.15173	-58.72491	-587.96350	939.82593	175.77995	-735.29187	442.38995	138.21844	-582.83032	461.84940	-162.73569	-699.80798	119.33783	204.29987	-585.97821	131.49527	-75.62598	
313	3.120	-592.37238	1420.39600	-205.16293	-649.80035	1619.83325	14.11843	-731.85608	1539.81848	-101.91489	-511.12500	1484.41968	-93.92432	-828.38141	1336.71045	74.91398	-478.14069	1334.93030	21.76461	-679.69916	1211.18481	-72.06250	-641.56042	1390.67786	92.11931	-931.85608	1013.82031	92.98420	-325.31000	1024.63965	-32.20530	-960.39484	837.12415	-11.46952	-270.31232	914.64020	-224.72052	-765.79883	848.37793	2.24389	-524.89203	860.91632	-68.28504	-591.96777	938.79163	168.58177	-736.21179	441.39429	134.58488	-583.46234	460.10443	-167.36197	-699.91431	119.55056	203.24701	-592.37384	125.88653	-100.36200	
314	3.130	-593.52802	1418.86731	-212.91080	-652.00598	1618.47632	6.25388	-733.74066	1538.41345	-110.63749	-512.77649	1483.35339	-101.43620	-831.61810	1335.76855	64.71056	-480.53549	1333.85791	15.18611	-681.36011	1209.82764	-79.96595	-644.22083	1389.19812	84.34314	-937.67133	1014.59338	81.43596	-328.25702	1022.01862	-36.08573	-964.84619	837.69800	-25.07088	-272.41763	910.97729	-227.61833	-769.53906	847.80402	-8.05951	-526.25934	861.23151	-76.41528	-596.41895	938.74261	160.70999	-737.24408	441.02780	130.55925	-584.37793	458.76028	-171.99574	-700.31659	120.25742	202.51755	-598.89502	121.77947	-125.07143	
315	3.140	-594.83655	1417.70007	-220.84267	-654.33917	1616.98364	-1.76899	-735.26007	1536.96606	-118.56145	-514.51923	1481.99084	-108.91460	-834.65784	1334.24121	55.30523	-483.17807	1332.57751	8.44960	-683.03058	1208.59924	-88.72958	-647.51965	1388.10815	75.72403	-941.28027	1012.37250	70.62900	-330.84451	1019.71161	-39.91747	-969.86902	837.65741	-36.73708	-275.04678	908.55975	-231.35638	-769.83374	845.51807	-14.42407	-527.19751	858.94635	-81.47971	-599.82678	937.21704	153.24577	-738.62585	441.31689	124.91428	-584.77979	456.23773	-175.79372	-700.52039	120.31824	201.55989	-604.63794	118.18381	-149.10504	
316	3.150	-595.53961	1416.09485	-228.64302	-656.07178	1615.60083	-10.19009	-737.06067	1535.59033	-127.68439	-517.48425	1479.93555	-116.36967	-837.38922	1333.15588	45.13837	-484.97641	1330.88733	1.69391	-684.67548	1206.97229	-97.10361	-649.92133	1385.90527	67.53598	-946.07672	1013.11700	59.15332	-334.74991	1017.81146	-44.16200	-972.83911	837.21973	-48.37119	-277.28177	904.65570	-234.24994	-771.81616	844.64221	-25.14255	-529.43024	859.46674	-91.42229	-603.44354	935.80310	145.34709	-739.77271	440.13995	117.95409	-584.65442	452.91232	-179.75616	-700.73340	120.91071	200.14191	-610.24481	115.29842	-171.12398	
317	3.160	-596.67639	1414.29492	-236.09787	-657.67065	1614.72522	-18.13884	-738.82935	1534.29150	-136.28165	-518.77881	1477.79089	-124.21960	-840.07104	1331.89844	35.83432	-487.73657	1329.27441	-5.24496	-686.34442	1205.48413	-105.72686	-654.06732	1385.88586	58.58443	-948.90759	1010.96936	48.71773	-338.10907	1014.57874	-48.22153	-976.81671	837.27411	-60.78620	-280.00525	901.56128	-237.35136	-774.00934	843.30133	-33.27815	-530.07849	856.92786	-98.18633	-607.56622	934.31445	136.99646	-742.01843	438.07626	118.77216	-584.40833	450.03046	-183.79333	-700.53790	121.45364	199.01756	-615.16614	114.72408	-198.52618	
318	3.170	-597.84790	1413.11389	-244.80614	-660.23962	1613.08069	-26.97748	-740.31897	1532.85437	-145.25774	-520.06580	1476.99341	-130.97217	-842.77844	1330.42371	26.42954	-489.66714	1327.72168	-13.09799	-687.68970	1204.60681	-114.32570	-656.17548	1383.10376	51.20422	-953.40375	1011.10980	37.15317	-340.64377	1011.95203	-52.41585	-979.92944	836.18872	-72.55733	-282.57117	897.56171	-240.57632	-776.22772	842.02338	-42.06618	-532.79913	855.40021	-107.06800	-611.35101	932.62451	128.71518	-742.75232	439.52087	110.79474	-584.31281	446.41080	-187.24315	-700.67572	121.86934	197.98535	-619.43793	114.59319	-219.61963	
319	3.180	-598.13416	1411.08447	-251.95901	-662.65875	1612.02795	-36.13828	-741.23682	1531.73657	-154.28667	-522.10620	1475.62756	-138.00563	-845.20709	1328.84424	16.20542	-491.90311	1326.13293	-19.43332	-689.45886	1202.90515	-123.07761	-658.87317	1382.28296	42.69163	-956.37177	1009.44690	26.37279	-343.98334	1009.13214	-57.23330	-982.88513	835.60455	-84.08965	-284.88638	893.27380	-243.88672	-778.47943	840.84229	-51.18409	-534.13831	853.92358	-115.63357	-614.51221	931.37872	120.01067	-744.24927	438.49911	105.48824	-584.35162	444.15811	-192.49400	-699.73981	122.27155	197.30818	-623.14966	114.70361	-239.96614	
320	3.190	-599.52386	1409.58655	-260.05933	-666.12476	1614.08057	-44.37967	-742.72345	1529.70154	-163.24869	-523.85522	1473.16248	-145.76576	-847.41510	1327.26782	7.17384	-493.80737	1323.98352	-26.69871	-690.59344	1201.62146	-131.82289	-661.45758	1380.04333	34.12105	-959.48480	1008.46661	15.22261	-347.27200	1006.05505	-60.57549	-987.28723	836.52362	-97.45336	-287.75574	888.93561	-246.76413	-780.81580	839.90387	-60.40247	-535.62109	851.64496	-123.52177	-617.96094	928.85779	111.95122	-745.59021	437.57138	99.24353	-584.76569	442.28323	-198.60419	-700.13916	122.20427	195.20882	-625.74792	116.85253	-258.68170	
